REM DIRINDEX 1\2,1\3
REM DIRNAME cjc132,folder01,folder02
TITLE ""
FILE "60.mp3" MP3
  TRACK 01 AUDIO
    TITLE "0:"
    INDEX 01 00:00:00
  TRACK 02 AUDIO
    TITLE "3:cjc132_1148"
    INDEX 01 00:00:15
  TRACK 03 AUDIO
    TITLE "0:"
    INDEX 01 00:01:34
  TRACK 04 AUDIO
    TITLE "2:cjc132_1149"
    INDEX 01 00:02:08
  TRACK 05 AUDIO
    TITLE "0:"
    INDEX 01 00:03:64
  TRACK 06 AUDIO
    TITLE "2:cjc132_1150"
    INDEX 01 00:04:38
  TRACK 07 AUDIO
    TITLE "0:"
    INDEX 01 00:06:06
  TRACK 08 AUDIO
    TITLE "2:cjc132_1151"
    INDEX 01 00:06:53
  TRACK 09 AUDIO
    TITLE "0:"
    INDEX 01 00:08:28
  TRACK 10 AUDIO
    TITLE "2:cjc132_1152"
    INDEX 01 00:09:02
  TRACK 11 AUDIO
    TITLE "0:"
    INDEX 01 00:10:53
  TRACK 12 AUDIO
    TITLE "2:cjc132_1153"
    INDEX 01 00:11:29
  TRACK 13 AUDIO
    TITLE "0:"
    INDEX 01 00:13:12
  TRACK 14 AUDIO
    TITLE "2:cjc132_1154"
    INDEX 01 00:13:63
  TRACK 15 AUDIO
    TITLE "0:"
    INDEX 01 00:15:68
  TRACK 16 AUDIO
    TITLE "2:cjc132_1155"
    INDEX 01 00:17:04
  TRACK 17 AUDIO
    TITLE "0:"
    INDEX 01 00:18:70
  TRACK 18 AUDIO
    TITLE "2:cjc132_1156"
    INDEX 01 00:21:09
  TRACK 19 AUDIO
    TITLE "0:"
    INDEX 01 00:22:46
  TRACK 20 AUDIO
    TITLE "2:cjc132_1157"
    INDEX 01 00:24:29
  TRACK 21 AUDIO
    TITLE "0:"
    INDEX 01 00:26:13
  TRACK 22 AUDIO
    TITLE "2:cjc132_1158"
    INDEX 01 00:28:17
  TRACK 23 AUDIO
    TITLE "0:"
    INDEX 01 00:29:64
  TRACK 24 AUDIO
    TITLE "2:cjc132_1159"
    INDEX 01 00:31:59
  TRACK 25 AUDIO
    TITLE "0:"
    INDEX 01 00:33:30
  TRACK 26 AUDIO
    TITLE "2:cjc132_1160"
    INDEX 01 00:35:21
  TRACK 27 AUDIO
    TITLE "0:"
    INDEX 01 00:36:66
  TRACK 28 AUDIO
    TITLE "2:cjc132_1161"
    INDEX 01 00:38:59
  TRACK 29 AUDIO
    TITLE "0:"
    INDEX 01 00:39:74
  TRACK 30 AUDIO
    TITLE "2:cjc132_1162"
    INDEX 01 00:41:28
  TRACK 31 AUDIO
    TITLE "0:"
    INDEX 01 00:42:53
  TRACK 32 AUDIO
    TITLE "2:cjc132_1163"
    INDEX 01 00:44:20
  TRACK 33 AUDIO
    TITLE "0:"
    INDEX 01 00:45:49
  TRACK 34 AUDIO
    TITLE "2:cjc132_1164"
    INDEX 01 00:47:19
  TRACK 35 AUDIO
    TITLE "0:"
    INDEX 01 00:48:69
  TRACK 36 AUDIO
    TITLE "2:cjc132_1165"
    INDEX 01 00:50:64
  TRACK 37 AUDIO
    TITLE "0:"
    INDEX 01 00:52:02
  TRACK 38 AUDIO
    TITLE "2:cjc132_1166"
    INDEX 01 00:53:37
  TRACK 39 AUDIO
    TITLE "0:"
    INDEX 01 00:55:04
  TRACK 40 AUDIO
    TITLE "2:cjc132_1167"
    INDEX 01 00:56:71
  TRACK 41 AUDIO
    TITLE "0:"
    INDEX 01 00:58:48
  TRACK 42 AUDIO
    TITLE "2:cjc132_1168"
    INDEX 01 01:00:53
  TRACK 43 AUDIO
    TITLE "0:"
    INDEX 01 01:02:28
  TRACK 44 AUDIO
    TITLE "2:cjc132_1169"
    INDEX 01 01:04:25
  TRACK 45 AUDIO
    TITLE "0:"
    INDEX 01 01:05:42
  TRACK 46 AUDIO
    TITLE "2:cjc132_1170"
    INDEX 01 01:07:04
  TRACK 47 AUDIO
    TITLE "0:"
    INDEX 01 01:08:25
  TRACK 48 AUDIO
    TITLE "2:cjc132_1171"
    INDEX 01 01:09:69
  TRACK 49 AUDIO
    TITLE "0:"
    INDEX 01 01:11:23
  TRACK 50 AUDIO
    TITLE "2:cjc132_1172"
    INDEX 01 01:12:71
  TRACK 51 AUDIO
    TITLE "0:"
    INDEX 01 01:14:27
  TRACK 52 AUDIO
    TITLE "2:cjc132_1173"
    INDEX 01 01:16:05
  TRACK 53 AUDIO
    TITLE "0:"
    INDEX 01 01:17:20
  TRACK 54 AUDIO
    TITLE "2:cjc132_1174"
    INDEX 01 01:18:62
  TRACK 55 AUDIO
    TITLE "0:"
    INDEX 01 01:20:24
  TRACK 56 AUDIO
    TITLE "2:cjc132_1175"
    INDEX 01 01:22:11
  TRACK 57 AUDIO
    TITLE "0:"
    INDEX 01 01:23:32
  TRACK 58 AUDIO
    TITLE "2:cjc132_1176"
    INDEX 01 01:25:00
  TRACK 59 AUDIO
    TITLE "0:"
    INDEX 01 01:26:17
  TRACK 60 AUDIO
    TITLE "2:cjc132_1177"
    INDEX 01 01:27:59
  TRACK 61 AUDIO
    TITLE "0:"
    INDEX 01 01:29:11
  TRACK 62 AUDIO
    TITLE "2:cjc132_1178"
    INDEX 01 01:30:60
  TRACK 63 AUDIO
    TITLE "0:"
    INDEX 01 01:32:21
  TRACK 64 AUDIO
    TITLE "2:cjc132_1179"
    INDEX 01 01:34:06
  TRACK 65 AUDIO
    TITLE "0:"
    INDEX 01 01:35:20
  TRACK 66 AUDIO
    TITLE "2:cjc132_1180"
    INDEX 01 01:36:52
  TRACK 67 AUDIO
    TITLE "0:"
    INDEX 01 01:37:69
  TRACK 68 AUDIO
    TITLE "2:cjc132_1181"
    INDEX 01 01:39:25
  TRACK 69 AUDIO
    TITLE "0:"
    INDEX 01 01:41:01
  TRACK 70 AUDIO
    TITLE "2:cjc132_1182"
    INDEX 01 01:42:73
  TRACK 71 AUDIO
    TITLE "0:"
    INDEX 01 01:44:66
  TRACK 72 AUDIO
    TITLE "2:cjc132_1183"
    INDEX 01 01:47:07
  TRACK 73 AUDIO
    TITLE "0:"
    INDEX 01 01:48:63
  TRACK 74 AUDIO
    TITLE "2:cjc132_1184"
    INDEX 01 01:50:68
  TRACK 75 AUDIO
    TITLE "0:"
    INDEX 01 01:52:22
